IKResults
version=1
nRows=4
nColumns=63
inDegrees=yes

Units are S.I. units (second, meters, Newtons, ...)
If the header above contains a line with 'inDegrees', this indicates whether rotational values are in degrees (yes) or radians (no).

endheader
time	pelvis_tilt	pelvis_list	pelvis_rotation	pelvis_tx	pelvis_ty	pelvis_tz	hip_flexion_r	hip_adduction_r	hip_rotation_r	knee_angle_r	knee_angle_r_beta	ankle_angle_r	subtalar_angle_r	mtp_angle_r	hip_flexion_l	hip_adduction_l	hip_rotation_l	knee_angle_l	knee_angle_l_beta	ankle_angle_l	subtalar_angle_l	mtp_angle_l	L5_S1_Flex_Ext	L5_S1_Lat_Bending	L5_S1_axial_rotation	L4_L5_Flex_Ext	L4_L5_Lat_Bending	L4_L5_axial_rotation	L3_L4_Flex_Ext	L3_L4_Lat_Bending	L3_L4_axial_rotation	L2_L3_Flex_Ext	L2_L3_Lat_Bending	L2_L3_axial_rotation	L1_L2_Flex_Ext	L1_L2_Lat_Bending	L1_L2_axial_rotation	L1_T12_Flex_Ext	L1_T12_Lat_Bending	L1_T12_axial_rotation	Abs_r3	Abs_r2	Abs_r1	Abs_t1	Abs_t2	neck_flexion	neck_bending	neck_rotation	arm_flex_r	arm_add_r	arm_rot_r	elbow_flex_r	pro_sup_r	wrist_flex_r	wrist_dev_r	arm_flex_l	arm_add_l	arm_rot_l	elbow_flex_l	pro_sup_l	wrist_flex_l	wrist_dev_l
      2.03333333	     24.33002683	    -31.46870625	    120.82787184	     -0.35951370	      0.49664878	     -0.20045352	      5.35748341	    -32.06432888	    -39.78161372	     83.88026047	      1.46398672	     19.81519582	    -19.87387707	      0.00000000	    -10.81838269	     -5.37422808	    -12.46994590	     47.76427717	      0.83364390	      7.29660061	    -19.83283252	      0.00000000	     -6.38293909	     -0.26664258	     -0.60009029	    -11.85375619	     -0.35463463	     -0.63759593	    -10.48653063	     -0.64831476	     -0.63759593	     -7.29506109	     -0.64831476	     -0.52507900	     -5.92719724	     -0.54373754	     -0.48757336	     -3.64721140	     -0.41302935	     -0.45006772	    -45.59269563	     -3.01631416	     -3.33752217	      0.00000000	      0.00000000	     28.52077555	     -8.84396999	    -44.77822437	     56.46645559	    -12.66758579	      6.77245866	     75.68323015	     89.99559364	      0.00000000	      0.00000000	     50.88719359	    -29.81342541	     36.87140675	     74.41731589	     89.99559364	      0.00000000	      0.00000000
      2.06666667	     26.55934838	    -36.78232333	    115.07623018	     -0.37228044	      0.46232130	     -0.24185088	     10.09388946	    -34.83380449	    -39.81168207	     84.86092641	      1.48110257	     21.56039646	    -19.85950821	      0.00000000	    -13.67486551	     -2.72083614	    -23.94161329	     37.73341980	      0.65857241	      3.29617574	    -19.80399549	      0.00000000	     -5.84804022	     -0.82845647	      0.24198702	    -10.86039549	     -1.10184710	      0.25711120	     -9.60774527	     -2.01430906	      0.25711120	     -6.68372516	     -2.01430906	      0.21173864	     -5.43049014	     -1.68938843	      0.19661445	     -3.34157018	     -1.28327907	      0.18149026	    -41.77196646	     -9.37166526	      1.34585919	      0.00000000	      0.00000000	     28.51181851	     -3.80111530	    -44.77302760	     49.11415984	    -11.41533346	      2.55419272	     84.04082128	     89.99559364	      0.00000000	      0.00000000	     44.98785082	    -38.44219997	     36.95610999	     74.44742468	     89.99559364	      0.00000000	      0.00000000
      2.10000000	     29.76933427	    -41.48095003	    112.10059604	     -0.38670954	      0.42817339	     -0.27828129	     13.96399290	    -35.92142862	    -39.82524735	     85.77996939	      1.49714290	     22.15037436	    -19.83044387	      0.00000000	    -15.80059057	     -0.31089021	    -33.36632343	     27.61864501	      0.48203629	     -1.44333444	    -19.74780874	      0.00000000	     -5.29414710	     -1.14420331	      0.89859359	     -9.83176059	     -1.52179041	      0.95475569	     -8.69775428	     -2.78201594	      0.95475569	     -6.05068073	     -2.78201594	      0.78626939	     -4.91614500	     -2.33325940	      0.73010729	     -3.02507566	     -1.77237093	      0.67394519	    -37.81556335	    -12.94345673	      4.99770797	      0.00000000	      0.00000000	     28.50024857	      0.71754137	    -44.77066024	     41.33541590	    -10.99622504	     -1.01296722	     92.29128696	     89.99559364	      0.00000000	      0.00000000	     41.76508979	    -39.67093794	     37.18790119	     74.45774303	     89.99559364	      0.00000000	      0.00000000
      2.13333333	     36.22361756	    -51.78742682	    115.42983739	     -0.39847752	      0.38768046	     -0.30298493	     23.11707363	    -37.49136328	    -39.83543224	     87.55254213	      1.52808013	     22.15223485	    -19.78062660	      0.00000000	     -9.52658594	      1.62568312	    -36.99841811	     20.54527364	      0.35858267	     -4.89942597	    -19.69227722	      0.00000000	     -3.68416519	     -1.40141762	      0.91263809	     -6.84186317	     -1.86388544	      0.96967797	     -6.05271499	     -3.40740681	      0.96967797	     -4.21063239	     -3.40740681	      0.79855833	     -3.42111579	     -2.85777082	      0.74151845	     -2.10513199	     -2.17079590	      0.68447857	    -26.31562353	    -15.85311644	      5.07581927	      0.00000000	      0.00000000	     28.45454981	      6.83581277	    -44.77227064	     30.24768262	    -10.02958828	     -4.88373908	    100.70118142	     89.99559364	      0.00000000	      0.00000000	     23.14299227	    -44.73517464	     38.67541481	     74.50146142	     89.99559364	      0.00000000	      0.00000000
